# xmcd
#
# Track frame offsets: 
#        150
#        18498
#        34963
#        52741
#        68741
#        81189
#        98251
#        119697
#        130292
#        147856
#        159959
#        175688
#        187469
#
# Disc length: 2647 seconds
#
# Revision: 0
# Processed by: cddbd v1.5.2PL0 Copyright (c) Steve Scherf et al.
# Submitted via: ExactAudioCopy v0.99pb3
#
DISCID=ab0a550d
DTITLE=Kenny Brown - Meet Ya In The Bottom
DYEAR=2008
DGENRE=Blues
TTITLE0=Skinny Woman
TTITLE1=Bo Weevil
TTITLE2=Stop Breakin' Down
TTITLE3=I Shoulda Known
TTITLE4=Cheatn And Lyin
TTITLE5=Devil Ride
TTITLE6=Long Haired Doney
TTITLE7=Spanish Fandango
TTITLE8=Rainin In Mississippi
TTITLE9=Drivers Re-Mix
TTITLE10=I'm Ruined
TTITLE11=Mississippi Country Girl
TTITLE12=Get You A Job
EXTD=
EXTT0=
EXTT1=
EXTT2=
EXTT3=
EXTT4=
EXTT5=
EXTT6=
EXTT7=
EXTT8=
EXTT9=
EXTT10=
EXTT11=
EXTT12=
PLAYORDER=
